<svg width="16" height="10" viewBox="0 0 16 10" fill="none" xmlns="http://www.w3.org/2000/svg">
<path d="M9.5 5C9.5 5.82843 8.82843 6.5 8 6.5C7.17157 6.5 6.5 5.82843 6.5 5C6.5 4.17157 7.17157 3.5 8 3.5C8.82843 3.5 9.5 4.17157 9.5 5Z" stroke="black"/>
<path d="M15.3028 5.00262C15.291 5.01506 15.279 5.02763 15.267 5.04032C14.7187 5.6179 13.926 6.45302 12.8817 7.22246C11.5732 8.18657 9.9259 9 8 9C6.0741 9 4.4268 8.18657 3.11829 7.22246C2.07397 6.45302 1.28127 5.61791 0.733006 5.04032C0.720113 5.02673 0.707354 5.01329 0.694731 5C0.707354 4.9867 0.720113 4.97327 0.733007 4.95968C1.28127 4.38209 2.07397 3.54698 3.11829 2.77754C4.4268 1.81343 6.0741 1 8 1C11.4567 1 13.5778 3.20766 15.1008 4.79273C15.1693 4.86404 15.2366 4.93409 15.3028 5.00262Z" stroke="black"/>
</svg>
